<svg xmlns="http://www.w3.org/2000/svg" xmlns:xlink="http://www.w3.org/1999/xlink" width="300" zoomAndPan="magnify" viewBox="0 0 375 374.999991" height="300" preserveAspectRatio="xMidYMid meet" version="1.0"><defs><g/></defs><g fill="#e46e6e" fill-opacity="1"><g transform="translate(178.91477, 199.973293)"><g><path d="M 25.617188 -0.488281 L 13.214844 -32.390625 C 13.09375 -32.714844 12.523438 -32.714844 12.402344 -32.390625 L 0.0390625 -0.488281 C -0.0820312 -0.246094 0.0820312 0 0.449219 0 L 6.039062 0 C 6.199219 0 6.40625 -0.0820312 6.445312 -0.246094 L 12.808594 -18.4375 L 19.253906 -0.246094 C 19.292969 -0.0820312 19.5 0 19.621094 0 L 25.25 0 C 25.535156 0 25.738281 -0.246094 25.617188 -0.488281 Z M 25.617188 -0.488281 "/></g></g></g><g fill="#e46e6e" fill-opacity="1"><g transform="translate(205.830357, 199.973293)"><g><path d="M 27.003906 -32.632812 L 21.742188 -32.632812 C 21.457031 -32.632812 21.253906 -32.429688 21.253906 -32.265625 L 21.253906 -11.015625 L 6.199219 -32.511719 C 6.160156 -32.59375 5.914062 -32.632812 5.832031 -32.632812 L 0.40625 -32.632812 C 0.203125 -32.632812 0 -32.429688 0 -32.265625 L 0 -7.832031 L 6.242188 -7.832031 L 6.242188 -21.621094 L 21.253906 -0.121094 C 21.292969 -0.0390625 21.539062 0 21.621094 0 L 27.003906 0 C 27.289062 0 27.453125 -0.203125 27.453125 -0.367188 L 27.453125 -32.265625 C 27.453125 -32.429688 27.289062 -32.632812 27.003906 -32.632812 Z M 27.003906 -32.632812 "/></g></g></g><g fill="#e46e6e" fill-opacity="1"><g transform="translate(234.662669, 199.973293)"><g><path d="M 25.617188 -0.488281 L 13.214844 -32.390625 C 13.09375 -32.714844 12.523438 -32.714844 12.402344 -32.390625 L 0.0390625 -0.488281 C -0.0820312 -0.246094 0.0820312 0 0.449219 0 L 6.039062 0 C 6.199219 0 6.40625 -0.0820312 6.445312 -0.246094 L 12.808594 -18.4375 L 19.253906 -0.246094 C 19.292969 -0.0820312 19.5 0 19.621094 0 L 25.25 0 C 25.535156 0 25.738281 -0.246094 25.617188 -0.488281 Z M 25.617188 -0.488281 "/></g></g></g><g fill="#e46e6e" fill-opacity="1"><g transform="translate(122.594461, 256.97329)"><g><path d="M 2.734375 -27.046875 L 14.238281 -27.046875 L 14.238281 -32.265625 C 14.238281 -32.429688 14.113281 -32.632812 13.828125 -32.632812 L 2.734375 -32.632812 C 2.449219 -32.632812 2.285156 -32.429688 2.285156 -32.265625 L 2.285156 -27.414062 C 2.285156 -27.25 2.449219 -27.046875 2.734375 -27.046875 Z M 8.035156 -21.457031 L 8.035156 -9.628906 C 8.035156 -9.628906 8.035156 -6.039062 4.488281 -6.039062 L 0.449219 -6.039062 C 0.203125 -6.039062 0 -5.875 0 -5.671875 L 0 -0.367188 C 0 -0.203125 0.203125 0 0.449219 0 L 4.488281 0 C 4.488281 0 14.238281 0 14.238281 -9.628906 L 14.238281 -21.457031 Z M 8.035156 -21.457031 "/></g></g></g><g fill="#e46e6e" fill-opacity="1"><g transform="translate(137.561158, 256.97329)"><g><path d="M 25.617188 -0.488281 L 13.214844 -32.390625 C 13.09375 -32.714844 12.523438 -32.714844 12.402344 -32.390625 L 0.0390625 -0.488281 C -0.0820312 -0.246094 0.0820312 0 0.449219 0 L 6.039062 0 C 6.199219 0 6.40625 -0.0820312 6.445312 -0.246094 L 12.808594 -18.4375 L 19.253906 -0.246094 C 19.292969 -0.0820312 19.5 0 19.621094 0 L 25.25 0 C 25.535156 0 25.738281 -0.246094 25.617188 -0.488281 Z M 25.617188 -0.488281 "/></g></g></g><g fill="#e46e6e" fill-opacity="1"><g transform="translate(164.476745, 256.97329)"><g><path d="M 18.640625 -5.996094 C 14.683594 -5.832031 6.28125 -6.242188 6.28125 -16.316406 C 6.28125 -24.066406 11.542969 -27.046875 18.640625 -26.679688 L 18.640625 -19.457031 L 24.882812 -19.457031 L 24.882812 -32.265625 C 24.882812 -32.429688 24.71875 -32.632812 24.433594 -32.632812 L 19.132812 -32.632812 C 11.136719 -32.632812 0 -30.796875 0 -16.316406 C 0 -2.367188 11.015625 0 19.132812 0 L 24.433594 0 C 24.71875 0 24.882812 -0.203125 24.882812 -0.367188 L 24.882812 -5.996094 Z M 18.640625 -5.996094 "/></g></g></g><g fill="#e46e6e" fill-opacity="1"><g transform="translate(190.617498, 256.97329)"><g><path d="M 18.765625 -16.234375 C 18.765625 -17.949219 17.417969 -19.335938 15.707031 -19.335938 C 13.992188 -19.335938 12.644531 -17.949219 12.644531 -16.234375 C 12.644531 -14.5625 13.992188 -13.175781 15.707031 -13.175781 C 17.417969 -13.175781 18.765625 -14.5625 18.765625 -16.234375 Z M 31.410156 -16.359375 C 31.410156 -24.476562 26.148438 -32.632812 15.746094 -32.632812 C 5.179688 -32.632812 0 -24.476562 0 -16.359375 C 0 -8.199219 5.179688 0 15.746094 0 C 26.148438 0 31.410156 -8.199219 31.410156 -16.359375 Z M 25.292969 -16.234375 C 25.292969 -10.972656 22.070312 -5.710938 15.746094 -5.710938 C 9.339844 -5.710938 6.160156 -10.972656 6.160156 -16.234375 C 6.160156 -21.578125 9.339844 -26.882812 15.746094 -26.882812 C 22.070312 -26.882812 25.292969 -21.578125 25.292969 -16.234375 Z M 25.292969 -16.234375 "/></g></g></g><g fill="#e46e6e" fill-opacity="1"><g transform="translate(223.56871, 256.97329)"><g><path d="M 15.910156 -22.925781 C 15.910156 -19.335938 11.09375 -19.335938 11.09375 -19.335938 L 6.199219 -19.335938 L 6.199219 -26.800781 L 11.09375 -26.800781 C 11.09375 -26.800781 15.910156 -26.839844 15.910156 -22.925781 Z M 22.148438 -23.292969 C 22.148438 -32.878906 11.09375 -32.632812 11.09375 -32.632812 L 0.449219 -32.632812 C 0.203125 -32.632812 0 -32.429688 0 -32.265625 L 0 -13.257812 L 11.09375 -13.257812 C 11.09375 -13.257812 16.359375 -13.503906 16.359375 -9.667969 C 16.359375 -6.527344 13.136719 -5.957031 11.09375 -5.957031 L 6.242188 -5.957031 L 6.242188 0 L 11.09375 0 C 13.296875 0 22.597656 -0.40625 22.597656 -9.503906 C 22.597656 -9.503906 22.804688 -14.5625 17.621094 -16.316406 C 20.109375 -17.335938 22.148438 -19.5 22.148438 -23.292969 Z M 22.148438 -23.292969 "/></g></g></g><g fill="#e46e6e" fill-opacity="1"><g transform="translate(247.303366, 256.97329)"><g><path d="M 14.972656 -18.113281 C 12.644531 -19.214844 10.359375 -19.214844 10.15625 -19.214844 C 8.078125 -19.214844 6.078125 -20.4375 6.078125 -22.804688 C 6.078125 -25.414062 7.914062 -26.761719 10.15625 -26.761719 C 12.277344 -26.761719 14.074219 -25.660156 14.15625 -23.332031 C 14.15625 -23.210938 14.359375 -23.007812 14.605469 -23.007812 L 19.703125 -23.007812 C 19.988281 -23.007812 20.191406 -23.210938 20.152344 -23.332031 C 20.070312 -28.882812 15.746094 -32.632812 10.15625 -32.632812 C 4.9375 -32.632812 0 -28.921875 0 -22.804688 C 0 -19.007812 1.917969 -16.113281 5.304688 -14.5625 C 7.667969 -13.460938 9.871094 -13.460938 10.15625 -13.460938 C 11.992188 -13.378906 14.238281 -11.910156 14.238281 -9.503906 C 14.238281 -7.34375 12.320312 -5.875 10.15625 -5.875 C 10.15625 -5.875 10.15625 -5.875 10.117188 -5.875 L 10.117188 0 C 10.15625 0 10.15625 0 10.15625 0 C 15.378906 0 20.273438 -3.386719 20.273438 -9.503906 C 20.273438 -13.339844 18.398438 -16.519531 14.972656 -18.113281 Z M 14.972656 -18.113281 "/></g></g></g><g fill="#e46e6e" fill-opacity="1"><g transform="translate(268.591149, 256.97329)"><g><path d="M 15.5 -6.078125 L 6.242188 -6.078125 L 6.242188 -13.421875 L 19.050781 -13.421875 C 19.292969 -13.421875 19.5 -13.625 19.5 -13.789062 L 19.5 -18.96875 C 19.5 -19.171875 19.292969 -19.335938 19.050781 -19.335938 L 6.242188 -19.335938 L 6.242188 -26.71875 L 15.5 -26.71875 L 15.5 -32.632812 L 0.449219 -32.632812 C 0.203125 -32.632812 0 -32.429688 0 -32.265625 L 0 -0.367188 C 0 -0.203125 0.203125 0 0.449219 0 L 15.5 0 Z M 15.5 -6.078125 "/></g></g></g><g fill="#e46e6e" fill-opacity="1"><g transform="translate(289.063312, 256.97329)"><g><path d="M 27.003906 -32.632812 L 21.742188 -32.632812 C 21.457031 -32.632812 21.253906 -32.429688 21.253906 -32.265625 L 21.253906 -11.015625 L 6.199219 -32.511719 C 6.160156 -32.59375 5.914062 -32.632812 5.832031 -32.632812 L 0.40625 -32.632812 C 0.203125 -32.632812 0 -32.429688 0 -32.265625 L 0 -7.832031 L 6.242188 -7.832031 L 6.242188 -21.621094 L 21.253906 -0.121094 C 21.292969 -0.0390625 21.539062 0 21.621094 0 L 27.003906 0 C 27.289062 0 27.453125 -0.203125 27.453125 -0.367188 L 27.453125 -32.265625 C 27.453125 -32.429688 27.289062 -32.632812 27.003906 -32.632812 Z M 27.003906 -32.632812 "/></g></g></g><g fill="#e89797" fill-opacity="1"><g transform="translate(234.793282, 184.028253)"><g><path d="M -0.046875 -1.0625 L -1.0625 -1.015625 L -1.25 -5.359375 L -1.9375 -5.984375 L -3.703125 -5.921875 L -4.328125 -5.234375 L -4.171875 -1.8125 L -5.375 -0.515625 L -7.609375 -0.421875 L -8.90625 -1.609375 L -9.109375 -6.328125 L -8.125 -6.359375 L -7.953125 -2.140625 L -7.25 -1.515625 L -5.796875 -1.59375 L -5.15625 -2.265625 L -5.296875 -5.6875 L -4.109375 -7 L -1.578125 -7.109375 L -0.25 -5.90625 Z M -0.046875 -1.0625 "/></g></g></g><g fill="#e89797" fill-opacity="1"><g transform="translate(234.466004, 175.754819)"><g><path d="M 0.578125 -2 L -1 -1.140625 L -7.0625 -2.890625 L -7.921875 -4.453125 L -6.765625 -8.453125 L -5.1875 -9.328125 L 0.875 -7.578125 L 1.734375 -6 Z M -0.21875 -2.734375 L 0.671875 -5.796875 L 0.21875 -6.625 L -5.15625 -8.1875 L -5.953125 -7.71875 L -6.84375 -4.65625 L -6.40625 -3.84375 L -1.03125 -2.28125 Z M -0.21875 -2.734375 "/></g></g></g><g fill="#e89797" fill-opacity="1"><g transform="translate(237.066273, 167.401122)"><g><path d="M 0.578125 -0.875 L -6.765625 -5.796875 L -3.578125 -10.53125 L -2.75 -9.984375 L -5.328125 -6.15625 L -2.953125 -4.5625 L -0.6875 -7.921875 L 0.140625 -7.359375 L -2.125 -4 L 1.1875 -1.78125 Z M 0.578125 -0.875 "/></g></g></g><g fill="#e89797" fill-opacity="1"><g transform="translate(241.293594, 161.26751)"><g><path d="M 2.125 -1.796875 L -2.921875 -7.796875 L -4.921875 -6.09375 L -5.5625 -6.859375 L -0.71875 -10.953125 L -0.078125 -10.1875 L -2.078125 -8.5 L 2.96875 -2.5 Z M 2.125 -1.796875 "/></g></g></g><g fill="#e89797" fill-opacity="1"><g transform="translate(246.475354, 156.502971)"><g><path d="M 2.1875 -0.796875 L -2.90625 -8.34375 L -1.8125 -8.75 L 2.5 -2.03125 L 2.75 -2.125 L 1.609375 -10 L 2.546875 -10.34375 L 6.765625 -3.609375 L 7.015625 -3.6875 L 5.953125 -11.609375 L 7.046875 -12 L 8.046875 -2.953125 L 6.4375 -2.359375 L 2.875 -8 L 3.796875 -1.390625 Z M 2.1875 -0.796875 "/></g></g></g><g fill="#e89797" fill-opacity="1"><g transform="translate(256.993613, 152.968292)"><g><path d="M 0.171875 0 L 3.3125 -8.78125 L 5 -8.765625 L 7.84375 0.140625 L 6.703125 0.125 L 5.984375 -2.1875 L 2.109375 -2.265625 L 1.3125 0.015625 Z M 2.453125 -3.21875 L 5.6875 -3.171875 L 4.28125 -7.734375 L 4 -7.75 Z M 2.453125 -3.21875 "/></g></g></g><g fill="#e89797" fill-opacity="1"><g transform="translate(265.382492, 153.167289)"><g><path d="M 0.984375 0.34375 L 3.9375 -7.984375 L 8.484375 -6.359375 L 9.25 -4.765625 L 8.3125 -2.109375 L 6.703125 -1.328125 L 6.671875 -1.34375 L 7.015625 2.484375 L 5.875 2.078125 L 5.5625 -1.734375 L 3.1875 -2.578125 L 2.015625 0.71875 Z M 3.515625 -3.5 L 6.578125 -2.421875 L 7.40625 -2.828125 L 8.09375 -4.78125 L 7.71875 -5.625 L 4.65625 -6.703125 Z M 3.515625 -3.5 "/></g></g></g><g fill="#e89797" fill-opacity="1"><g transform="translate(273.383408, 156.125501)"><g><path d="M 0.828125 0.640625 L 6.21875 -6.375 L 10.84375 -2.828125 L 10.234375 -2.03125 L 6.484375 -4.90625 L 4.84375 -2.765625 L 8.1875 -0.1875 L 7.578125 0.59375 L 4.234375 -1.984375 L 2.328125 0.5 L 6.078125 3.375 L 5.453125 4.1875 Z M 0.828125 0.640625 "/></g></g></g><g fill="#e89797" fill-opacity="1"><g transform="translate(279.676297, 161.40908)"><g/></g></g><g fill="#e89797" fill-opacity="1"><g transform="translate(282.008849, 163.935775)"><g><path d="M 0.46875 0.9375 L 8.359375 -3.046875 L 10.984375 2.15625 L 10.09375 2.609375 L 7.96875 -1.625 L 5.5625 -0.40625 L 7.46875 3.375 L 6.578125 3.8125 L 4.671875 0.03125 L 1.875 1.453125 L 4 5.6875 L 3.09375 6.140625 Z M 0.46875 0.9375 "/></g></g></g><g fill="#e89797" fill-opacity="1"><g transform="translate(285.591794, 170.976866)"><g><path d="M 0.15625 1.03125 L 8.90625 -0.234375 L 9.109375 1.234375 L 2.65625 6.171875 L 9.6875 5.15625 L 9.84375 6.234375 L 1.09375 7.5 L 0.90625 6.21875 L 7.25 1.375 L 7.21875 1.125 L 0.3125 2.125 Z M 0.15625 1.03125 "/></g></g></g><g fill="#e89797" fill-opacity="1"><g transform="translate(286.817019, 179.836477)"><g><path d="M -0.40625 2 L 1.078125 1.046875 L 7.28125 2.265625 L 8.265625 3.75 L 7.453125 7.875 L 6.03125 8.84375 L 5.453125 8.015625 L 6.578125 7.265625 L 7.21875 4.046875 L 6.703125 3.28125 L 1.21875 2.1875 L 0.453125 2.703125 L -0.0625 5.3125 L 0.921875 6.90625 L 2.328125 7.1875 L 2.71875 5.171875 L 3.65625 5.359375 L 3.09375 8.265625 L -1.453125 7.359375 L -1.28125 6.46875 L -0.28125 6.671875 L -1.078125 5.390625 Z M -0.40625 2 "/></g></g></g><g fill="#e89797" fill-opacity="1"><g transform="translate(284.72611, 188.644622)"><g><path d="M -0.34375 0.671875 L 0.5625 1.140625 L 0.078125 2.09375 L 6.15625 5.1875 L 6.640625 4.234375 L 7.53125 4.6875 L 6.0625 7.578125 L 5.171875 7.125 L 5.65625 6.171875 L -0.421875 3.078125 L -0.90625 4.03125 L -1.8125 3.5625 Z M -0.34375 0.671875 "/></g></g></g><g fill="#e89797" fill-opacity="1"><g transform="translate(282.479401, 193.471352)"><g><path d="M -0.71875 0.765625 L 5.765625 6.78125 L 4.765625 7.875 L -3.140625 5.9375 L 2.078125 10.765625 L 1.328125 11.5625 L -5.15625 5.546875 L -4.28125 4.59375 L 3.46875 6.515625 L 3.65625 6.3125 L -1.453125 1.5625 Z M -0.71875 0.765625 "/></g></g></g><g fill="#e89797" fill-opacity="1"><g transform="translate(276.253976, 199.953328)"><g><path d="M -0.921875 0.5 L 3.3125 8.265625 L -1.796875 11.0625 L -2.28125 10.1875 L 1.875 7.921875 L 0.578125 5.546875 L -3.140625 7.5625 L -3.609375 6.703125 L 0.109375 4.6875 L -1.390625 1.921875 L -5.546875 4.1875 L -6.03125 3.296875 Z M -0.921875 0.5 "/></g></g></g><g fill="#e89797" fill-opacity="1"><g transform="translate(269.242334, 203.698373)"><g><path d="M -1.03125 0.203125 L 0.671875 8.875 L -5.046875 10 L -5.234375 9.03125 L -0.578125 8.109375 L -1.09375 5.453125 L -5.25 6.28125 L -5.453125 5.3125 L -1.296875 4.484375 L -1.890625 1.40625 L -6.546875 2.328125 L -6.75 1.328125 Z M -1.03125 0.203125 "/></g></g></g><g fill="#e89797" fill-opacity="1"><g transform="translate(261.46532, 205.213275)"><g><path d="M -1.046875 -0.125 L -2.109375 8.65625 L -6.890625 8.078125 L -7.984375 6.65625 L -7.65625 3.875 L -6.25 2.765625 L -6.21875 2.765625 L -7.390625 -0.890625 L -6.1875 -0.75 L -5.046875 2.90625 L -2.546875 3.21875 L -2.125 -0.25 Z M -2.65625 4.1875 L -5.890625 3.796875 L -6.59375 4.390625 L -6.84375 6.453125 L -6.296875 7.171875 L -3.0625 7.5625 Z M -2.65625 4.1875 "/></g></g></g></svg>