<svg xmlns="http://www.w3.org/2000/svg" xmlns:xlink="http://www.w3.org/1999/xlink" width="75" zoomAndPan="magnify" viewBox="0 0 375 374.999991" height="75" preserveAspectRatio="xMidYMid meet" version="1.0"><defs><clipPath id="a22bedcf45"><path d="M 54 0 L 330.804688 0 L 330.804688 375 L 54 375 Z M 54 0 " clip-rule="nonzero"/></clipPath><clipPath id="459a936065"><path d="M 74.179688 374.144531 C 74.730469 374.585938 75.390625 374.800781 76.050781 374.800781 C 76.925781 374.800781 77.796875 374.417969 78.390625 373.679688 C 79.421875 372.386719 79.21875 370.5 77.929688 369.46875 C 77.789062 369.351562 63.753906 357.953125 61.011719 344.246094 C 58.070312 329.542969 79.082031 222.882812 93.476562 202.730469 C 104.289062 187.589844 120.199219 180.558594 127.191406 178.058594 C 127.621094 183.410156 129.003906 192.921875 133.496094 199.65625 C 140.054688 209.492188 152.707031 212.753906 153.242188 212.890625 C 153.484375 212.953125 153.730469 212.980469 153.972656 212.980469 C 155.3125 212.980469 156.535156 212.070312 156.875 210.710938 C 157.277344 209.105469 156.300781 207.476562 154.695312 207.074219 C 154.585938 207.046875 143.769531 204.265625 138.476562 196.335938 C 136.019531 192.648438 134.667969 187.738281 133.921875 183.460938 C 140.621094 190.523438 148.640625 196.972656 149.097656 197.339844 C 149.648438 197.78125 150.3125 197.996094 150.96875 197.996094 C 151.847656 197.996094 152.71875 197.613281 153.308594 196.875 C 154.34375 195.582031 154.132812 193.695312 152.84375 192.664062 C 152.695312 192.546875 138.15625 180.867188 132.488281 172.363281 C 124.304688 160.085938 109.015625 133.027344 109.015625 123.082031 C 109.015625 100.300781 132.253906 65.160156 132.488281 64.808594 C 133.40625 63.433594 133.03125 61.570312 131.65625 60.652344 C 130.277344 59.730469 128.421875 60.105469 127.5 61.484375 C 127.023438 62.203125 121.371094 70.75 115.617188 82.160156 C 114.722656 77.304688 114.507812 70.027344 117.816406 61.199219 C 126.875 37.03125 162.265625 6.195312 180.933594 6.195312 C 180.933594 6.195312 180.9375 6.195312 180.9375 6.195312 C 200.03125 6.199219 232.285156 43.671875 238.101562 58.253906 C 241.109375 65.785156 241.691406 73.328125 241.59375 78.707031 C 234.972656 70.28125 228.429688 64.382812 227.878906 63.890625 C 226.640625 62.792969 224.75 62.902344 223.648438 64.140625 C 222.550781 65.378906 222.660156 67.269531 223.898438 68.371094 C 224.160156 68.601562 249.878906 91.703125 249.867188 111.082031 C 249.855469 130.394531 236.035156 159.492188 226.492188 172.214844 C 216.910156 184.988281 196.613281 204.585938 188.980469 207.132812 C 186.941406 207.8125 184.679688 207.929688 182.449219 207.742188 C 182.816406 206.953125 183.207031 206.144531 183.617188 205.320312 C 185.246094 202.0625 186.929688 198.695312 186.929688 194.992188 C 186.929688 190.398438 185.378906 184.414062 184.453125 181.246094 C 194.234375 174.515625 237.875 143.1875 237.875 120.074219 C 237.875 79.867188 202.085938 69.132812 180.9375 69.128906 C 180.933594 69.128906 180.929688 69.128906 180.925781 69.128906 C 176.269531 69.128906 160.015625 69.839844 145.621094 78.957031 C 131.476562 87.917969 123.996094 102.132812 123.996094 120.074219 C 123.996094 144.089844 171.105469 176.96875 178.394531 181.910156 C 179.125 184.289062 180.9375 190.632812 180.9375 194.992188 C 180.9375 197.28125 179.632812 199.886719 178.253906 202.644531 C 177.609375 203.933594 176.980469 205.253906 176.425781 206.59375 C 172.917969 205.585938 170.339844 204.324219 170.285156 204.300781 C 168.800781 203.566406 167.003906 204.164062 166.265625 205.640625 C 165.527344 207.121094 166.125 208.921875 167.605469 209.65625 C 167.859375 209.785156 170.855469 211.257812 175 212.414062 C 174.992188 212.601562 174.941406 212.78125 174.941406 212.972656 C 174.941406 217.601562 176.5625 228.539062 177.527344 234.648438 C 177.800781 236.367188 177.9375 238.117188 177.9375 239.847656 L 177.9375 371.800781 C 177.9375 373.457031 179.28125 374.796875 180.933594 374.796875 C 182.585938 374.796875 183.929688 373.457031 183.929688 371.800781 L 183.929688 342.902344 C 187.234375 345.949219 191.628906 347.828125 196.464844 347.828125 L 216.515625 347.828125 L 217.945312 353.070312 C 219.347656 358.214844 223.972656 361.648438 229.140625 361.648438 C 229.78125 361.648438 230.429688 361.59375 231.085938 361.488281 L 239.839844 360.027344 L 240.792969 360.976562 C 243.226562 363.414062 246.542969 364.742188 249.921875 364.742188 C 250.953125 364.742188 251.992188 364.617188 253.015625 364.363281 L 258.375 363.023438 C 258.515625 363.109375 258.667969 363.175781 258.8125 363.253906 L 258.8125 371.804688 C 258.8125 373.460938 260.152344 374.800781 261.808594 374.800781 C 263.460938 374.800781 264.804688 373.460938 264.804688 371.804688 L 264.804688 364.808594 C 265.757812 364.796875 266.714844 364.683594 267.664062 364.449219 L 275.929688 362.238281 C 277.164062 362.511719 278.414062 362.683594 279.675781 362.683594 C 282.328125 362.683594 284.996094 362.082031 287.480469 360.835938 L 313.59375 347.78125 C 323.183594 347.085938 330.769531 339.0625 330.769531 329.296875 L 330.769531 255.480469 C 330.769531 245.261719 322.460938 236.949219 312.242188 236.949219 L 285.253906 236.949219 C 283.617188 229.515625 278.128906 206.710938 270.242188 196.191406 C 262.640625 186.058594 241.800781 176.308594 233.46875 172.691406 C 242.304688 159.519531 255.839844 131.890625 255.855469 111.085938 C 255.863281 102.644531 251.929688 93.910156 247.015625 86.28125 C 247.621094 82.296875 248.976562 69.332031 243.667969 56.027344 C 237.394531 40.296875 203.460938 0.203125 180.941406 0.203125 C 180.941406 0.203125 180.941406 0.203125 180.9375 0.203125 C 158.414062 0.203125 121.328125 34.761719 112.207031 59.089844 C 106.3125 74.800781 110.167969 86.488281 111.773438 90.246094 C 107.015625 100.945312 103.023438 112.929688 103.023438 123.074219 C 103.023438 135.582031 119.40625 162.832031 125.363281 172.328125 C 117.730469 174.988281 100.558594 182.496094 88.597656 199.246094 C 73.46875 220.425781 51.875 329.132812 55.132812 345.421875 C 58.304688 361.292969 73.53125 373.625 74.179688 374.144531 Z M 129.996094 120.074219 C 129.996094 104.070312 136.332031 91.9375 148.832031 84.019531 C 161.863281 75.769531 176.679688 75.125 180.925781 75.125 C 180.929688 75.125 180.933594 75.125 180.941406 75.125 C 199.859375 75.125 231.886719 84.601562 231.886719 120.074219 C 231.886719 137.902344 196.582031 165.726562 180.941406 176.398438 C 165.296875 165.726562 129.996094 137.902344 129.996094 120.074219 Z M 230.101562 355.578125 C 227.226562 356.054688 224.492188 354.300781 223.730469 351.496094 L 218.4375 332.089844 C 218.214844 331.273438 218.328125 330.421875 218.757812 329.695312 C 219.183594 328.964844 219.871094 328.449219 220.6875 328.246094 C 222.359375 327.835938 224.050781 328.847656 224.46875 330.511719 C 224.46875 330.511719 224.46875 330.511719 224.46875 330.515625 L 227.777344 343.738281 C 228.695312 347.421875 230.597656 350.78125 233.28125 353.464844 L 234.640625 354.824219 Z M 245.03125 356.742188 L 237.511719 349.222656 C 235.597656 347.308594 234.242188 344.910156 233.585938 342.285156 L 230.277344 329.0625 C 229.859375 327.390625 230.875 325.699219 232.671875 325.253906 C 234.339844 324.835938 236.03125 325.851562 236.449219 327.519531 L 239.761719 340.765625 C 240.675781 344.433594 242.570312 347.78125 245.246094 350.453125 L 252.992188 358.199219 L 251.566406 358.554688 C 249.238281 359.128906 246.730469 358.4375 245.03125 356.742188 Z M 266.167969 358.644531 C 264.070312 359.167969 261.820312 358.542969 260.292969 357.023438 L 249.484375 346.210938 C 247.582031 344.308594 246.234375 341.925781 245.582031 339.3125 L 242.269531 326.066406 C 241.851562 324.394531 242.867188 322.703125 244.539062 322.285156 L 245.101562 322.144531 C 246.6875 321.753906 248.300781 322.648438 248.8125 324.183594 L 251.445312 332.078125 L 254.1875 340.300781 C 255.53125 344.328125 257.824219 348.042969 260.824219 351.039062 L 267.359375 357.574219 C 267.574219 357.789062 267.832031 357.941406 268.054688 358.140625 Z M 284.804688 355.476562 C 280.390625 357.679688 275.082031 356.828125 271.59375 353.335938 L 265.058594 346.800781 C 262.714844 344.460938 260.921875 341.554688 259.871094 338.40625 L 258.703125 334.898438 L 257.664062 331.773438 L 255.496094 325.273438 C 255.054688 323.957031 255.199219 322.566406 255.898438 321.363281 C 256.597656 320.160156 257.730469 319.347656 259.09375 319.074219 C 259.40625 319.011719 259.722656 318.980469 260.03125 318.980469 C 261.953125 318.980469 263.730469 320.144531 264.46875 321.988281 L 271.425781 339.375 C 273.484375 344.511719 278.382812 347.832031 283.914062 347.832031 L 300.105469 347.832031 Z M 324.785156 255.480469 L 324.785156 329.304688 C 324.785156 336.214844 319.164062 341.839844 312.25 341.839844 L 283.910156 341.839844 C 280.847656 341.839844 278.128906 340 276.988281 337.152344 L 270.03125 319.761719 C 268.105469 314.945312 263.015625 312.183594 257.914062 313.199219 C 255.117188 313.761719 252.699219 315.441406 251.117188 317.796875 C 249.007812 316.296875 246.304688 315.667969 243.640625 316.332031 L 243.078125 316.472656 C 240.78125 317.042969 238.933594 318.464844 237.722656 320.296875 C 235.773438 319.257812 233.441406 318.882812 231.089844 319.46875 C 228.804688 320.042969 226.957031 321.453125 225.746094 323.277344 C 223.742188 322.199219 221.453125 321.878906 219.230469 322.433594 C 216.835938 323.03125 214.828125 324.535156 213.582031 326.667969 C 212.332031 328.796875 212 331.285156 212.652344 333.667969 L 214.882812 341.839844 L 196.464844 341.839844 C 189.554688 341.839844 183.929688 336.21875 183.929688 329.304688 L 183.929688 255.480469 C 183.929688 248.566406 189.550781 242.945312 196.464844 242.945312 L 252.847656 242.945312 C 252.851562 242.945312 252.851562 242.945312 252.855469 242.945312 C 252.859375 242.945312 252.863281 242.945312 252.867188 242.945312 L 312.242188 242.945312 C 319.160156 242.945312 324.785156 248.566406 324.785156 255.480469 Z M 265.449219 199.789062 C 272.15625 208.730469 277.238281 228.792969 279.105469 236.949219 L 257.019531 236.949219 L 261.695312 222.914062 C 262.222656 221.34375 261.375 219.644531 259.804688 219.121094 C 258.226562 218.589844 256.535156 219.449219 256.011719 221.015625 L 250.703125 236.945312 L 196.46875 236.945312 C 191.632812 236.945312 187.234375 238.824219 183.933594 241.871094 L 183.933594 239.851562 C 183.933594 237.804688 183.773438 235.738281 183.449219 233.714844 C 182.726562 229.128906 181.09375 218.34375 180.960938 213.605469 C 182.058594 213.730469 183.179688 213.808594 184.304688 213.808594 C 186.519531 213.808594 188.753906 213.527344 190.875 212.820312 C 198.847656 210.160156 213.300781 196.503906 223.402344 185.25 C 221.3125 192.65625 217.710938 201.921875 211.78125 207.855469 C 200.914062 218.71875 190.015625 218.964844 189.925781 218.964844 C 188.269531 218.964844 186.925781 220.308594 186.925781 221.964844 C 186.925781 223.617188 188.269531 224.960938 189.925781 224.960938 C 190.464844 224.960938 203.296875 224.8125 216.015625 212.09375 C 225.746094 202.367188 229.8125 185.761719 231.21875 178.261719 C 239.1875 181.738281 258.792969 190.917969 265.449219 199.789062 Z M 136.042969 371.21875 C 136.070312 371.085938 138.484375 358.949219 138.914062 352.539062 C 133.945312 349.75 118.296875 341.09375 111.066406 338.6875 C 106.390625 337.128906 100.933594 338.699219 100.878906 338.71875 C 99.300781 339.191406 97.628906 338.28125 97.160156 336.699219 C 96.6875 335.117188 97.582031 333.453125 99.164062 332.976562 C 99.402344 332.902344 104.101562 331.5625 109.355469 332.230469 C 110.128906 324.292969 112.011719 304.496094 112.011719 299.882812 C 112.011719 297.59375 110.707031 294.988281 109.328125 292.226562 C 107.703125 288.972656 106.015625 285.601562 106.015625 281.902344 C 106.015625 279.683594 106.648438 276.152344 107.453125 271.679688 C 108.925781 263.46875 110.945312 252.222656 109.167969 246.886719 C 106.445312 238.722656 100.953125 233.125 100.894531 233.070312 C 99.730469 231.898438 99.734375 230 100.90625 228.832031 C 102.078125 227.664062 103.96875 227.664062 105.136719 228.835938 C 105.398438 229.097656 111.667969 235.4375 114.851562 244.988281 C 117.113281 251.777344 115.027344 263.398438 113.351562 272.738281 C 112.660156 276.582031 112.007812 280.214844 112.007812 281.898438 C 112.007812 284.183594 113.3125 286.789062 114.6875 289.546875 C 116.316406 292.804688 118 296.171875 118 299.878906 C 118 305.042969 115.917969 326.699219 115.21875 333.835938 C 121.878906 336.476562 131.992188 341.859375 138.152344 345.253906 C 137.371094 342.367188 136.3125 340.207031 136.296875 340.171875 C 135.5625 338.695312 136.164062 336.894531 137.644531 336.15625 C 139.121094 335.425781 140.921875 336.023438 141.660156 337.496094 C 141.796875 337.765625 144.972656 344.203125 144.972656 350.824219 C 144.972656 357.042969 142.042969 371.765625 141.914062 372.390625 C 141.632812 373.8125 140.378906 374.796875 138.980469 374.796875 C 138.785156 374.796875 138.589844 374.78125 138.390625 374.738281 C 136.773438 374.417969 135.722656 372.839844 136.042969 371.21875 Z M 150.707031 363.625 C 151.21875 359.351562 150.984375 354.835938 150.050781 350.914062 L 148.054688 342.53125 C 147.671875 340.921875 148.667969 339.304688 150.277344 338.925781 C 151.878906 338.535156 153.5 339.535156 153.882812 341.144531 L 155.878906 349.527344 C 156.972656 354.117188 157.25 359.378906 156.660156 364.332031 L 155.726562 372.160156 C 155.542969 373.679688 154.25 374.800781 152.753906 374.800781 C 152.636719 374.800781 152.515625 374.796875 152.394531 374.78125 C 150.753906 374.585938 149.578125 373.09375 149.773438 371.453125 Z M 183.632812 114.230469 C 183.632812 112.859375 182.703125 111.664062 181.375 111.328125 L 173.445312 109.320312 C 169.152344 108.230469 165.8125 104.890625 164.722656 100.597656 L 162.714844 92.667969 C 162.378906 91.335938 161.183594 90.40625 159.8125 90.40625 C 158.441406 90.40625 157.242188 91.339844 156.910156 92.667969 L 154.902344 100.597656 C 153.8125 104.890625 150.472656 108.230469 146.175781 109.316406 L 138.246094 111.324219 C 136.917969 111.660156 135.988281 112.859375 135.988281 114.230469 C 135.988281 115.597656 136.921875 116.796875 138.246094 117.132812 L 146.175781 119.140625 C 150.472656 120.226562 153.808594 123.570312 154.898438 127.863281 L 156.90625 135.792969 C 157.242188 137.125 158.441406 138.054688 159.808594 138.054688 C 161.179688 138.054688 162.378906 137.121094 162.714844 135.792969 L 164.722656 127.863281 C 165.808594 123.574219 169.148438 120.230469 173.445312 119.144531 L 181.375 117.136719 C 182.703125 116.800781 183.632812 115.605469 183.632812 114.230469 Z M 159.808594 123.734375 C 157.988281 119.460938 154.578125 116.054688 150.304688 114.230469 C 154.578125 112.410156 157.988281 109.003906 159.808594 104.730469 C 161.632812 109.003906 165.039062 112.410156 169.3125 114.230469 C 165.039062 116.058594 161.632812 119.460938 159.808594 123.734375 Z M 159.808594 123.734375 " clip-rule="nonzero"/></clipPath><linearGradient x1="46.044998" gradientTransform="matrix(2.996778, 0, 0, 2.996778, 54.802261, 0.20139)" y1="0.00000109358" x2="46.044998" gradientUnits="userSpaceOnUse" y2="125.001003" id="468bd0e7fa"><stop stop-opacity="1" stop-color="rgb(93.699646%, 79.598999%, 34.498596%)" offset="0"/><stop stop-opacity="1" stop-color="rgb(93.64624%, 79.420471%, 34.667969%)" offset="0.0078125"/><stop stop-opacity="1" stop-color="rgb(93.537903%, 79.064941%, 35.00824%)" offset="0.015625"/><stop stop-opacity="1" stop-color="rgb(93.431091%, 78.709412%, 35.348511%)" offset="0.0234375"/><stop stop-opacity="1" stop-color="rgb(93.32428%, 78.353882%, 35.688782%)" offset="0.03125"/><stop stop-opacity="1" stop-color="rgb(93.217468%, 77.998352%, 36.027527%)" offset="0.0390625"/><stop stop-opacity="1" stop-color="rgb(93.110657%, 77.642822%, 36.367798%)" offset="0.046875"/><stop stop-opacity="1" stop-color="rgb(93.003845%, 77.287292%, 36.708069%)" offset="0.0546875"/><stop stop-opacity="1" stop-color="rgb(92.897034%, 76.931763%, 37.046814%)" offset="0.0625"/><stop stop-opacity="1" stop-color="rgb(92.788696%, 76.577759%, 37.387085%)" offset="0.0703125"/><stop stop-opacity="1" stop-color="rgb(92.681885%, 76.222229%, 37.727356%)" offset="0.078125"/><stop stop-opacity="1" stop-color="rgb(92.575073%, 75.866699%, 38.067627%)" offset="0.0859375"/><stop stop-opacity="1" stop-color="rgb(92.468262%, 75.511169%, 38.406372%)" offset="0.09375"/><stop stop-opacity="1" stop-color="rgb(92.36145%, 75.15564%, 38.746643%)" offset="0.101562"/><stop stop-opacity="1" stop-color="rgb(92.254639%, 74.80011%, 39.086914%)" offset="0.109375"/><stop stop-opacity="1" stop-color="rgb(92.147827%, 74.44458%, 39.427185%)" offset="0.117187"/><stop stop-opacity="1" stop-color="rgb(92.03949%, 74.08905%, 39.76593%)" offset="0.125"/><stop stop-opacity="1" stop-color="rgb(91.932678%, 73.733521%, 40.106201%)" offset="0.132812"/><stop stop-opacity="1" stop-color="rgb(91.825867%, 73.377991%, 40.446472%)" offset="0.140625"/><stop stop-opacity="1" stop-color="rgb(91.719055%, 73.022461%, 40.785217%)" offset="0.148437"/><stop stop-opacity="1" stop-color="rgb(91.612244%, 72.666931%, 41.125488%)" offset="0.15625"/><stop stop-opacity="1" stop-color="rgb(91.505432%, 72.311401%, 41.465759%)" offset="0.164062"/><stop stop-opacity="1" stop-color="rgb(91.398621%, 71.955872%, 41.80603%)" offset="0.171875"/><stop stop-opacity="1" stop-color="rgb(91.290283%, 71.600342%, 42.144775%)" offset="0.179687"/><stop stop-opacity="1" stop-color="rgb(91.183472%, 71.244812%, 42.485046%)" offset="0.1875"/><stop stop-opacity="1" stop-color="rgb(91.07666%, 70.889282%, 42.825317%)" offset="0.195312"/><stop stop-opacity="1" stop-color="rgb(90.969849%, 70.533752%, 43.164062%)" offset="0.203125"/><stop stop-opacity="1" stop-color="rgb(90.863037%, 70.178223%, 43.504333%)" offset="0.210937"/><stop stop-opacity="1" stop-color="rgb(90.756226%, 69.822693%, 43.844604%)" offset="0.21875"/><stop stop-opacity="1" stop-color="rgb(90.649414%, 69.467163%, 44.184875%)" offset="0.226562"/><stop stop-opacity="1" stop-color="rgb(90.541077%, 69.111633%, 44.523621%)" offset="0.234375"/><stop stop-opacity="1" stop-color="rgb(90.434265%, 68.756104%, 44.863892%)" offset="0.242187"/><stop stop-opacity="1" stop-color="rgb(90.327454%, 68.400574%, 45.204163%)" offset="0.25"/><stop stop-opacity="1" stop-color="rgb(90.220642%, 68.045044%, 45.542908%)" offset="0.257812"/><stop stop-opacity="1" stop-color="rgb(90.113831%, 67.69104%, 45.883179%)" offset="0.265625"/><stop stop-opacity="1" stop-color="rgb(90.007019%, 67.33551%, 46.22345%)" offset="0.273438"/><stop stop-opacity="1" stop-color="rgb(89.900208%, 66.97998%, 46.563721%)" offset="0.28125"/><stop stop-opacity="1" stop-color="rgb(89.79187%, 66.624451%, 46.902466%)" offset="0.289062"/><stop stop-opacity="1" stop-color="rgb(89.685059%, 66.268921%, 47.242737%)" offset="0.296875"/><stop stop-opacity="1" stop-color="rgb(89.578247%, 65.913391%, 47.583008%)" offset="0.304688"/><stop stop-opacity="1" stop-color="rgb(89.471436%, 65.557861%, 47.923279%)" offset="0.3125"/><stop stop-opacity="1" stop-color="rgb(89.364624%, 65.202332%, 48.262024%)" offset="0.320312"/><stop stop-opacity="1" stop-color="rgb(89.257812%, 64.846802%, 48.602295%)" offset="0.328125"/><stop stop-opacity="1" stop-color="rgb(89.151001%, 64.491272%, 48.942566%)" offset="0.335938"/><stop stop-opacity="1" stop-color="rgb(89.042664%, 64.135742%, 49.281311%)" offset="0.34375"/><stop stop-opacity="1" stop-color="rgb(88.935852%, 63.780212%, 49.621582%)" offset="0.351562"/><stop stop-opacity="1" stop-color="rgb(88.829041%, 63.424683%, 49.961853%)" offset="0.359375"/><stop stop-opacity="1" stop-color="rgb(88.722229%, 63.069153%, 50.302124%)" offset="0.367188"/><stop stop-opacity="1" stop-color="rgb(88.615417%, 62.713623%, 50.640869%)" offset="0.375"/><stop stop-opacity="1" stop-color="rgb(88.508606%, 62.358093%, 50.98114%)" offset="0.382812"/><stop stop-opacity="1" stop-color="rgb(88.401794%, 62.002563%, 51.321411%)" offset="0.390625"/><stop stop-opacity="1" stop-color="rgb(88.293457%, 61.647034%, 51.660156%)" offset="0.398438"/><stop stop-opacity="1" stop-color="rgb(88.186646%, 61.291504%, 52.000427%)" offset="0.40625"/><stop stop-opacity="1" stop-color="rgb(88.079834%, 60.935974%, 52.340698%)" offset="0.414062"/><stop stop-opacity="1" stop-color="rgb(87.973022%, 60.580444%, 52.680969%)" offset="0.421875"/><stop stop-opacity="1" stop-color="rgb(87.866211%, 60.224915%, 53.019714%)" offset="0.429688"/><stop stop-opacity="1" stop-color="rgb(87.759399%, 59.869385%, 53.359985%)" offset="0.4375"/><stop stop-opacity="1" stop-color="rgb(87.652588%, 59.513855%, 53.700256%)" offset="0.445312"/><stop stop-opacity="1" stop-color="rgb(87.54425%, 59.158325%, 54.039001%)" offset="0.453125"/><stop stop-opacity="1" stop-color="rgb(87.437439%, 58.804321%, 54.379272%)" offset="0.460938"/><stop stop-opacity="1" stop-color="rgb(87.330627%, 58.448792%, 54.719543%)" offset="0.46875"/><stop stop-opacity="1" stop-color="rgb(87.223816%, 58.093262%, 55.059814%)" offset="0.476562"/><stop stop-opacity="1" stop-color="rgb(87.117004%, 57.737732%, 55.39856%)" offset="0.484375"/><stop stop-opacity="1" stop-color="rgb(87.010193%, 57.382202%, 55.738831%)" offset="0.492188"/><stop stop-opacity="1" stop-color="rgb(86.903381%, 57.026672%, 56.079102%)" offset="0.5"/><stop stop-opacity="1" stop-color="rgb(86.795044%, 56.671143%, 56.419373%)" offset="0.507812"/><stop stop-opacity="1" stop-color="rgb(86.688232%, 56.315613%, 56.758118%)" offset="0.515625"/><stop stop-opacity="1" stop-color="rgb(86.581421%, 55.960083%, 57.098389%)" offset="0.523437"/><stop stop-opacity="1" stop-color="rgb(86.474609%, 55.604553%, 57.43866%)" offset="0.53125"/><stop stop-opacity="1" stop-color="rgb(86.367798%, 55.249023%, 57.777405%)" offset="0.539063"/><stop stop-opacity="1" stop-color="rgb(86.260986%, 54.893494%, 58.117676%)" offset="0.546875"/><stop stop-opacity="1" stop-color="rgb(86.154175%, 54.537964%, 58.457947%)" offset="0.554688"/><stop stop-opacity="1" stop-color="rgb(86.045837%, 54.182434%, 58.798218%)" offset="0.5625"/><stop stop-opacity="1" stop-color="rgb(85.939026%, 53.826904%, 59.136963%)" offset="0.570312"/><stop stop-opacity="1" stop-color="rgb(85.832214%, 53.471375%, 59.477234%)" offset="0.578125"/><stop stop-opacity="1" stop-color="rgb(85.725403%, 53.115845%, 59.817505%)" offset="0.585937"/><stop stop-opacity="1" stop-color="rgb(85.618591%, 52.760315%, 60.15625%)" offset="0.59375"/><stop stop-opacity="1" stop-color="rgb(85.51178%, 52.404785%, 60.496521%)" offset="0.601563"/><stop stop-opacity="1" stop-color="rgb(85.403442%, 52.049255%, 60.836792%)" offset="0.609375"/><stop stop-opacity="1" stop-color="rgb(85.296631%, 51.693726%, 61.177063%)" offset="0.617188"/><stop stop-opacity="1" stop-color="rgb(85.189819%, 51.338196%, 61.515808%)" offset="0.625"/><stop stop-opacity="1" stop-color="rgb(85.083008%, 50.982666%, 61.856079%)" offset="0.632812"/><stop stop-opacity="1" stop-color="rgb(84.976196%, 50.627136%, 62.19635%)" offset="0.640625"/><stop stop-opacity="1" stop-color="rgb(84.869385%, 50.271606%, 62.535095%)" offset="0.648437"/><stop stop-opacity="1" stop-color="rgb(84.762573%, 49.917603%, 62.875366%)" offset="0.65625"/><stop stop-opacity="1" stop-color="rgb(84.654236%, 49.562073%, 63.215637%)" offset="0.664063"/><stop stop-opacity="1" stop-color="rgb(84.547424%, 49.206543%, 63.555908%)" offset="0.671875"/><stop stop-opacity="1" stop-color="rgb(84.440613%, 48.851013%, 63.894653%)" offset="0.679688"/><stop stop-opacity="1" stop-color="rgb(84.333801%, 48.495483%, 64.234924%)" offset="0.6875"/><stop stop-opacity="1" stop-color="rgb(84.22699%, 48.139954%, 64.575195%)" offset="0.695312"/><stop stop-opacity="1" stop-color="rgb(84.120178%, 47.784424%, 64.915466%)" offset="0.703125"/><stop stop-opacity="1" stop-color="rgb(84.013367%, 47.428894%, 65.254211%)" offset="0.710937"/><stop stop-opacity="1" stop-color="rgb(83.905029%, 47.073364%, 65.594482%)" offset="0.71875"/><stop stop-opacity="1" stop-color="rgb(83.798218%, 46.717834%, 65.934753%)" offset="0.726563"/><stop stop-opacity="1" stop-color="rgb(83.691406%, 46.362305%, 66.273499%)" offset="0.734375"/><stop stop-opacity="1" stop-color="rgb(83.584595%, 46.006775%, 66.61377%)" offset="0.742188"/><stop stop-opacity="1" stop-color="rgb(83.477783%, 45.651245%, 66.954041%)" offset="0.75"/><stop stop-opacity="1" stop-color="rgb(83.370972%, 45.295715%, 67.294312%)" offset="0.757812"/><stop stop-opacity="1" stop-color="rgb(83.26416%, 44.940186%, 67.633057%)" offset="0.765625"/><stop stop-opacity="1" stop-color="rgb(83.155823%, 44.584656%, 67.973328%)" offset="0.773437"/><stop stop-opacity="1" stop-color="rgb(83.049011%, 44.229126%, 68.313599%)" offset="0.78125"/><stop stop-opacity="1" stop-color="rgb(82.9422%, 43.873596%, 68.652344%)" offset="0.789063"/><stop stop-opacity="1" stop-color="rgb(82.835388%, 43.518066%, 68.992615%)" offset="0.796875"/><stop stop-opacity="1" stop-color="rgb(82.728577%, 43.162537%, 69.332886%)" offset="0.804688"/><stop stop-opacity="1" stop-color="rgb(82.621765%, 42.807007%, 69.673157%)" offset="0.8125"/><stop stop-opacity="1" stop-color="rgb(82.514954%, 42.451477%, 70.011902%)" offset="0.820312"/><stop stop-opacity="1" stop-color="rgb(82.406616%, 42.095947%, 70.352173%)" offset="0.828125"/><stop stop-opacity="1" stop-color="rgb(82.299805%, 41.740417%, 70.692444%)" offset="0.835937"/><stop stop-opacity="1" stop-color="rgb(82.192993%, 41.384888%, 71.031189%)" offset="0.84375"/><stop stop-opacity="1" stop-color="rgb(82.086182%, 41.030884%, 71.37146%)" offset="0.851563"/><stop stop-opacity="1" stop-color="rgb(81.97937%, 40.675354%, 71.711731%)" offset="0.859375"/><stop stop-opacity="1" stop-color="rgb(81.872559%, 40.319824%, 72.052002%)" offset="0.867188"/><stop stop-opacity="1" stop-color="rgb(81.765747%, 39.964294%, 72.390747%)" offset="0.875"/><stop stop-opacity="1" stop-color="rgb(81.65741%, 39.608765%, 72.731018%)" offset="0.882812"/><stop stop-opacity="1" stop-color="rgb(81.550598%, 39.253235%, 73.071289%)" offset="0.890625"/><stop stop-opacity="1" stop-color="rgb(81.443787%, 38.897705%, 73.41156%)" offset="0.898437"/><stop stop-opacity="1" stop-color="rgb(81.336975%, 38.542175%, 73.750305%)" offset="0.90625"/><stop stop-opacity="1" stop-color="rgb(81.230164%, 38.186646%, 74.090576%)" offset="0.914063"/><stop stop-opacity="1" stop-color="rgb(81.123352%, 37.831116%, 74.430847%)" offset="0.921875"/><stop stop-opacity="1" stop-color="rgb(81.016541%, 37.475586%, 74.769592%)" offset="0.929688"/><stop stop-opacity="1" stop-color="rgb(80.908203%, 37.120056%, 75.109863%)" offset="0.9375"/><stop stop-opacity="1" stop-color="rgb(80.801392%, 36.764526%, 75.450134%)" offset="0.945312"/><stop stop-opacity="1" stop-color="rgb(80.69458%, 36.408997%, 75.790405%)" offset="0.953125"/><stop stop-opacity="1" stop-color="rgb(80.587769%, 36.053467%, 76.12915%)" offset="0.960937"/><stop stop-opacity="1" stop-color="rgb(80.480957%, 35.697937%, 76.469421%)" offset="0.96875"/><stop stop-opacity="1" stop-color="rgb(80.374146%, 35.342407%, 76.809692%)" offset="0.976563"/><stop stop-opacity="1" stop-color="rgb(80.267334%, 34.986877%, 77.148438%)" offset="0.984375"/><stop stop-opacity="1" stop-color="rgb(80.158997%, 34.631348%, 77.488708%)" offset="0.992188"/><stop stop-opacity="1" stop-color="rgb(80.052185%, 34.275818%, 77.828979%)" offset="1"/></linearGradient></defs><g clip-path="url(#a22bedcf45)"><g clip-path="url(#459a936065)"><path fill="url(#468bd0e7fa)" d="M 51.875 0.203125 L 51.875 374.800781 L 330.769531 374.800781 L 330.769531 0.203125 Z M 51.875 0.203125 " fill-rule="nonzero"/></g></g></svg>