<svg xmlns="http://www.w3.org/2000/svg" xmlns:xlink="http://www.w3.org/1999/xlink" width="500" zoomAndPan="magnify" viewBox="0 0 375 374.999991" height="500" preserveAspectRatio="xMidYMid meet" version="1.0"><defs><g/></defs><g fill="#ffffff" fill-opacity="1"><g transform="translate(10.365439, 216.951346)"><g><path d="M 31.882812 -0.609375 L 16.449219 -40.3125 C 16.296875 -40.71875 15.585938 -40.71875 15.433594 -40.3125 L 0.0507812 -0.609375 C -0.101562 -0.304688 0.101562 0 0.558594 0 L 7.515625 0 C 7.71875 0 7.972656 -0.101562 8.023438 -0.304688 L 15.941406 -22.949219 L 23.964844 -0.304688 C 24.015625 -0.101562 24.269531 0 24.421875 0 L 31.425781 0 C 31.78125 0 32.035156 -0.304688 31.882812 -0.609375 Z M 31.882812 -0.609375 "/></g></g></g><g fill="#ffffff" fill-opacity="1"><g transform="translate(43.869193, 216.951346)"><g><path d="M 33.609375 -40.617188 L 27.058594 -40.617188 C 26.703125 -40.617188 26.449219 -40.363281 26.449219 -40.160156 L 26.449219 -13.707031 L 7.71875 -40.464844 C 7.667969 -40.566406 7.363281 -40.617188 7.261719 -40.617188 L 0.507812 -40.617188 C 0.253906 -40.617188 0 -40.363281 0 -40.160156 L 0 -9.746094 L 7.769531 -9.746094 L 7.769531 -26.90625 L 26.449219 -0.152344 C 26.5 -0.0507812 26.804688 0 26.90625 0 L 33.609375 0 C 33.964844 0 34.167969 -0.253906 34.167969 -0.457031 L 34.167969 -40.160156 C 34.167969 -40.363281 33.964844 -40.617188 33.609375 -40.617188 Z M 33.609375 -40.617188 "/></g></g></g><g fill="#ffffff" fill-opacity="1"><g transform="translate(79.758815, 216.951346)"><g><path d="M 31.882812 -0.609375 L 16.449219 -40.3125 C 16.296875 -40.71875 15.585938 -40.71875 15.433594 -40.3125 L 0.0507812 -0.609375 C -0.101562 -0.304688 0.101562 0 0.558594 0 L 7.515625 0 C 7.71875 0 7.972656 -0.101562 8.023438 -0.304688 L 15.941406 -22.949219 L 23.964844 -0.304688 C 24.015625 -0.101562 24.269531 0 24.421875 0 L 31.425781 0 C 31.78125 0 32.035156 -0.304688 31.882812 -0.609375 Z M 31.882812 -0.609375 "/></g></g></g><g fill="#ffffff" fill-opacity="1"><g transform="translate(113.262569, 216.951346)"><g/></g></g><g fill="#ffffff" fill-opacity="1"><g transform="translate(125.953386, 216.951346)"><g><path d="M 3.402344 -33.660156 L 17.71875 -33.660156 L 17.71875 -40.160156 C 17.71875 -40.363281 17.566406 -40.617188 17.210938 -40.617188 L 3.402344 -40.617188 C 3.046875 -40.617188 2.84375 -40.363281 2.84375 -40.160156 L 2.84375 -34.117188 C 2.84375 -33.914062 3.046875 -33.660156 3.402344 -33.660156 Z M 10 -26.703125 L 10 -11.980469 C 10 -11.980469 10 -7.515625 5.585938 -7.515625 L 0.558594 -7.515625 C 0.253906 -7.515625 0 -7.3125 0 -7.058594 L 0 -0.457031 C 0 -0.253906 0.253906 0 0.558594 0 L 5.585938 0 C 5.585938 0 17.71875 0 17.71875 -11.980469 L 17.71875 -26.703125 Z M 10 -26.703125 "/></g></g></g><g fill="#ffffff" fill-opacity="1"><g transform="translate(144.583495, 216.951346)"><g><path d="M 31.882812 -0.609375 L 16.449219 -40.3125 C 16.296875 -40.71875 15.585938 -40.71875 15.433594 -40.3125 L 0.0507812 -0.609375 C -0.101562 -0.304688 0.101562 0 0.558594 0 L 7.515625 0 C 7.71875 0 7.972656 -0.101562 8.023438 -0.304688 L 15.941406 -22.949219 L 23.964844 -0.304688 C 24.015625 -0.101562 24.269531 0 24.421875 0 L 31.425781 0 C 31.78125 0 32.035156 -0.304688 31.882812 -0.609375 Z M 31.882812 -0.609375 "/></g></g></g><g fill="#ffffff" fill-opacity="1"><g transform="translate(178.087249, 216.951346)"><g><path d="M 23.203125 -7.464844 C 18.277344 -7.261719 7.820312 -7.769531 7.820312 -20.308594 C 7.820312 -29.953125 14.367188 -33.660156 23.203125 -33.203125 L 23.203125 -24.21875 L 30.96875 -24.21875 L 30.96875 -40.160156 C 30.96875 -40.363281 30.765625 -40.617188 30.410156 -40.617188 L 23.8125 -40.617188 C 13.859375 -40.617188 0 -38.332031 0 -20.308594 C 0 -2.945312 13.707031 0 23.8125 0 L 30.410156 0 C 30.765625 0 30.96875 -0.253906 30.96875 -0.457031 L 30.96875 -7.464844 Z M 23.203125 -7.464844 "/></g></g></g><g fill="#ffffff" fill-opacity="1"><g transform="translate(210.626497, 216.951346)"><g><path d="M 23.355469 -20.207031 C 23.355469 -22.339844 21.679688 -24.066406 19.546875 -24.066406 C 17.414062 -24.066406 15.738281 -22.339844 15.738281 -20.207031 C 15.738281 -18.125 17.414062 -16.398438 19.546875 -16.398438 C 21.679688 -16.398438 23.355469 -18.125 23.355469 -20.207031 Z M 39.09375 -20.359375 C 39.09375 -30.460938 32.542969 -40.617188 19.597656 -40.617188 C 6.449219 -40.617188 0 -30.460938 0 -20.359375 C 0 -10.203125 6.449219 0 19.597656 0 C 32.542969 0 39.09375 -10.203125 39.09375 -20.359375 Z M 31.476562 -20.207031 C 31.476562 -13.65625 27.464844 -7.109375 19.597656 -7.109375 C 11.625 -7.109375 7.667969 -13.65625 7.667969 -20.207031 C 7.667969 -26.855469 11.625 -33.457031 19.597656 -33.457031 C 27.464844 -33.457031 31.476562 -26.855469 31.476562 -20.207031 Z M 31.476562 -20.207031 "/></g></g></g><g fill="#ffffff" fill-opacity="1"><g transform="translate(251.643192, 216.951346)"><g><path d="M 19.800781 -28.53125 C 19.800781 -24.066406 13.808594 -24.066406 13.808594 -24.066406 L 7.71875 -24.066406 L 7.71875 -33.355469 L 13.808594 -33.355469 C 13.808594 -33.355469 19.800781 -33.40625 19.800781 -28.53125 Z M 27.566406 -28.988281 C 27.566406 -40.921875 13.808594 -40.617188 13.808594 -40.617188 L 0.558594 -40.617188 C 0.253906 -40.617188 0 -40.363281 0 -40.160156 L 0 -16.5 L 13.808594 -16.5 C 13.808594 -16.5 20.359375 -16.804688 20.359375 -12.03125 C 20.359375 -8.125 16.347656 -7.414062 13.808594 -7.414062 L 7.769531 -7.414062 L 7.769531 0 L 13.808594 0 C 16.550781 0 28.125 -0.507812 28.125 -11.828125 C 28.125 -11.828125 28.378906 -18.125 21.933594 -20.308594 C 25.03125 -21.578125 27.566406 -24.269531 27.566406 -28.988281 Z M 27.566406 -28.988281 "/></g></g></g><g fill="#ffffff" fill-opacity="1"><g transform="translate(281.187404, 216.951346)"><g><path d="M 18.632812 -22.542969 C 15.738281 -23.914062 12.894531 -23.914062 12.640625 -23.914062 C 10.050781 -23.914062 7.566406 -25.4375 7.566406 -28.378906 C 7.566406 -31.628906 9.847656 -33.304688 12.640625 -33.304688 C 15.28125 -33.304688 17.515625 -31.933594 17.617188 -29.039062 C 17.617188 -28.886719 17.871094 -28.632812 18.175781 -28.632812 L 24.523438 -28.632812 C 24.878906 -28.632812 25.132812 -28.886719 25.082031 -29.039062 C 24.980469 -35.945312 19.597656 -40.617188 12.640625 -40.617188 C 6.144531 -40.617188 0 -35.996094 0 -28.378906 C 0 -23.660156 2.386719 -20.054688 6.601562 -18.125 C 9.542969 -16.753906 12.285156 -16.753906 12.640625 -16.753906 C 14.925781 -16.652344 17.71875 -14.824219 17.71875 -11.828125 C 17.71875 -9.136719 15.332031 -7.3125 12.640625 -7.3125 C 12.640625 -7.3125 12.640625 -7.3125 12.589844 -7.3125 L 12.589844 0 C 12.640625 0 12.640625 0 12.640625 0 C 19.140625 0 25.234375 -4.214844 25.234375 -11.828125 C 25.234375 -16.601562 22.898438 -20.5625 18.632812 -22.542969 Z M 18.632812 -22.542969 "/></g></g></g><g fill="#ffffff" fill-opacity="1"><g transform="translate(307.68582, 216.951346)"><g><path d="M 19.292969 -7.566406 L 7.769531 -7.566406 L 7.769531 -16.703125 L 23.710938 -16.703125 C 24.015625 -16.703125 24.269531 -16.957031 24.269531 -17.160156 L 24.269531 -23.609375 C 24.269531 -23.863281 24.015625 -24.066406 23.710938 -24.066406 L 7.769531 -24.066406 L 7.769531 -33.253906 L 19.292969 -33.253906 L 19.292969 -40.617188 L 0.558594 -40.617188 C 0.253906 -40.617188 0 -40.363281 0 -40.160156 L 0 -0.457031 C 0 -0.253906 0.253906 0 0.558594 0 L 19.292969 0 Z M 19.292969 -7.566406 "/></g></g></g><g fill="#ffffff" fill-opacity="1"><g transform="translate(333.168979, 216.951346)"><g><path d="M 33.609375 -40.617188 L 27.058594 -40.617188 C 26.703125 -40.617188 26.449219 -40.363281 26.449219 -40.160156 L 26.449219 -13.707031 L 7.71875 -40.464844 C 7.667969 -40.566406 7.363281 -40.617188 7.261719 -40.617188 L 0.507812 -40.617188 C 0.253906 -40.617188 0 -40.363281 0 -40.160156 L 0 -9.746094 L 7.769531 -9.746094 L 7.769531 -26.90625 L 26.449219 -0.152344 C 26.5 -0.0507812 26.804688 0 26.90625 0 L 33.609375 0 C 33.964844 0 34.167969 -0.253906 34.167969 -0.457031 L 34.167969 -40.160156 C 34.167969 -40.363281 33.964844 -40.617188 33.609375 -40.617188 Z M 33.609375 -40.617188 "/></g></g></g></svg>