<svg xmlns="http://www.w3.org/2000/svg" xmlns:xlink="http://www.w3.org/1999/xlink" width="500" zoomAndPan="magnify" viewBox="0 0 375 374.999991" height="500" preserveAspectRatio="xMidYMid meet" version="1.0"><defs><g/></defs><g fill="#e46e6e" fill-opacity="1"><g transform="translate(129.208593, 181.613279)"><g><path d="M 36.132812 -0.691406 L 18.640625 -45.683594 C 18.46875 -46.144531 17.664062 -46.144531 17.492188 -45.683594 L 0.0585938 -0.691406 C -0.113281 -0.34375 0.113281 0 0.632812 0 L 8.515625 0 C 8.746094 0 9.035156 -0.113281 9.089844 -0.34375 L 18.066406 -26.007812 L 27.15625 -0.34375 C 27.214844 -0.113281 27.503906 0 27.675781 0 L 35.617188 0 C 36.019531 0 36.304688 -0.34375 36.132812 -0.691406 Z M 36.132812 -0.691406 "/></g></g></g><g fill="#e46e6e" fill-opacity="1"><g transform="translate(167.17261, 181.613279)"><g><path d="M 38.089844 -46.03125 L 30.667969 -46.03125 C 30.265625 -46.03125 29.976562 -45.742188 29.976562 -45.511719 L 29.976562 -15.535156 L 8.746094 -45.855469 C 8.6875 -45.972656 8.34375 -46.03125 8.226562 -46.03125 L 0.574219 -46.03125 C 0.289062 -46.03125 0 -45.742188 0 -45.511719 L 0 -11.046875 L 8.804688 -11.046875 L 8.804688 -30.496094 L 29.976562 -0.171875 C 30.035156 -0.0585938 30.378906 0 30.496094 0 L 38.089844 0 C 38.492188 0 38.722656 -0.289062 38.722656 -0.519531 L 38.722656 -45.511719 C 38.722656 -45.742188 38.492188 -46.03125 38.089844 -46.03125 Z M 38.089844 -46.03125 "/></g></g></g><g fill="#e46e6e" fill-opacity="1"><g transform="translate(207.840139, 181.613279)"><g><path d="M 36.132812 -0.691406 L 18.640625 -45.683594 C 18.46875 -46.144531 17.664062 -46.144531 17.492188 -45.683594 L 0.0585938 -0.691406 C -0.113281 -0.34375 0.113281 0 0.632812 0 L 8.515625 0 C 8.746094 0 9.035156 -0.113281 9.089844 -0.34375 L 18.066406 -26.007812 L 27.15625 -0.34375 C 27.214844 -0.113281 27.503906 0 27.675781 0 L 35.617188 0 C 36.019531 0 36.304688 -0.34375 36.132812 -0.691406 Z M 36.132812 -0.691406 "/></g></g></g><g fill="#e46e6e" fill-opacity="1"><g transform="translate(49.769672, 262.010889)"><g><path d="M 3.855469 -38.148438 L 20.082031 -38.148438 L 20.082031 -45.511719 C 20.082031 -45.742188 19.90625 -46.03125 19.503906 -46.03125 L 3.855469 -46.03125 C 3.453125 -46.03125 3.222656 -45.742188 3.222656 -45.511719 L 3.222656 -38.664062 C 3.222656 -38.433594 3.453125 -38.148438 3.855469 -38.148438 Z M 11.335938 -30.265625 L 11.335938 -13.578125 C 11.335938 -13.578125 11.335938 -8.515625 6.328125 -8.515625 L 0.632812 -8.515625 C 0.289062 -8.515625 0 -8.285156 0 -7.996094 L 0 -0.519531 C 0 -0.289062 0.289062 0 0.632812 0 L 6.328125 0 C 6.328125 0 20.082031 0 20.082031 -13.578125 L 20.082031 -30.265625 Z M 11.335938 -30.265625 "/></g></g></g><g fill="#e46e6e" fill-opacity="1"><g transform="translate(70.879965, 262.010889)"><g><path d="M 36.132812 -0.691406 L 18.640625 -45.683594 C 18.46875 -46.144531 17.664062 -46.144531 17.492188 -45.683594 L 0.0585938 -0.691406 C -0.113281 -0.34375 0.113281 0 0.632812 0 L 8.515625 0 C 8.746094 0 9.035156 -0.113281 9.089844 -0.34375 L 18.066406 -26.007812 L 27.15625 -0.34375 C 27.214844 -0.113281 27.503906 0 27.675781 0 L 35.617188 0 C 36.019531 0 36.304688 -0.34375 36.132812 -0.691406 Z M 36.132812 -0.691406 "/></g></g></g><g fill="#e46e6e" fill-opacity="1"><g transform="translate(108.843982, 262.010889)"><g><path d="M 26.292969 -8.457031 C 20.714844 -8.226562 8.859375 -8.804688 8.859375 -23.015625 C 8.859375 -33.945312 16.28125 -38.148438 26.292969 -37.628906 L 26.292969 -27.445312 L 35.097656 -27.445312 L 35.097656 -45.511719 C 35.097656 -45.742188 34.867188 -46.03125 34.464844 -46.03125 L 26.984375 -46.03125 C 15.707031 -46.03125 0 -43.441406 0 -23.015625 C 0 -3.335938 15.535156 0 26.984375 0 L 34.464844 0 C 34.867188 0 35.097656 -0.289062 35.097656 -0.519531 L 35.097656 -8.457031 Z M 26.292969 -8.457031 "/></g></g></g><g fill="#e46e6e" fill-opacity="1"><g transform="translate(145.715109, 262.010889)"><g><path d="M 26.46875 -22.898438 C 26.46875 -25.316406 24.570312 -27.273438 22.152344 -27.273438 C 19.734375 -27.273438 17.835938 -25.316406 17.835938 -22.898438 C 17.835938 -20.539062 19.734375 -18.585938 22.152344 -18.585938 C 24.570312 -18.585938 26.46875 -20.539062 26.46875 -22.898438 Z M 44.304688 -23.074219 C 44.304688 -34.523438 36.882812 -46.03125 22.210938 -46.03125 C 7.308594 -46.03125 0 -34.523438 0 -23.074219 C 0 -11.566406 7.308594 0 22.210938 0 C 36.882812 0 44.304688 -11.566406 44.304688 -23.074219 Z M 35.671875 -22.898438 C 35.671875 -15.476562 31.128906 -8.054688 22.210938 -8.054688 C 13.175781 -8.054688 8.6875 -15.476562 8.6875 -22.898438 C 8.6875 -30.4375 13.175781 -37.917969 22.210938 -37.917969 C 31.128906 -37.917969 35.671875 -30.4375 35.671875 -22.898438 Z M 35.671875 -22.898438 "/></g></g></g><g fill="#e46e6e" fill-opacity="1"><g transform="translate(192.192282, 262.010889)"><g><path d="M 22.441406 -32.335938 C 22.441406 -27.273438 15.648438 -27.273438 15.648438 -27.273438 L 8.746094 -27.273438 L 8.746094 -37.800781 L 15.648438 -37.800781 C 15.648438 -37.800781 22.441406 -37.859375 22.441406 -32.335938 Z M 31.242188 -32.855469 C 31.242188 -46.375 15.648438 -46.03125 15.648438 -46.03125 L 0.632812 -46.03125 C 0.289062 -46.03125 0 -45.742188 0 -45.511719 L 0 -18.699219 L 15.648438 -18.699219 C 15.648438 -18.699219 23.074219 -19.042969 23.074219 -13.636719 C 23.074219 -9.207031 18.527344 -8.402344 15.648438 -8.402344 L 8.804688 -8.402344 L 8.804688 0 L 15.648438 0 C 18.757812 0 31.875 -0.574219 31.875 -13.40625 C 31.875 -13.40625 32.164062 -20.539062 24.855469 -23.015625 C 28.367188 -24.453125 31.242188 -27.503906 31.242188 -32.855469 Z M 31.242188 -32.855469 "/></g></g></g><g fill="#e46e6e" fill-opacity="1"><g transform="translate(225.669646, 262.010889)"><g><path d="M 21.117188 -25.546875 C 17.835938 -27.101562 14.613281 -27.101562 14.328125 -27.101562 C 11.390625 -27.101562 8.574219 -28.824219 8.574219 -32.164062 C 8.574219 -35.84375 11.164062 -37.746094 14.328125 -37.746094 C 17.320312 -37.746094 19.851562 -36.191406 19.964844 -32.910156 C 19.964844 -32.738281 20.253906 -32.449219 20.597656 -32.449219 L 27.789062 -32.449219 C 28.191406 -32.449219 28.480469 -32.738281 28.421875 -32.910156 C 28.308594 -40.734375 22.210938 -46.03125 14.328125 -46.03125 C 6.960938 -46.03125 0 -40.792969 0 -32.164062 C 0 -26.8125 2.703125 -22.726562 7.480469 -20.539062 C 10.816406 -18.988281 13.925781 -18.988281 14.328125 -18.988281 C 16.914062 -18.871094 20.082031 -16.800781 20.082031 -13.40625 C 20.082031 -10.355469 17.375 -8.285156 14.328125 -8.285156 C 14.328125 -8.285156 14.328125 -8.285156 14.269531 -8.285156 L 14.269531 0 C 14.328125 0 14.328125 0 14.328125 0 C 21.691406 0 28.597656 -4.777344 28.597656 -13.40625 C 28.597656 -18.816406 25.949219 -23.300781 21.117188 -25.546875 Z M 21.117188 -25.546875 "/></g></g></g><g fill="#e46e6e" fill-opacity="1"><g transform="translate(255.695734, 262.010889)"><g><path d="M 21.863281 -8.574219 L 8.804688 -8.574219 L 8.804688 -18.929688 L 26.871094 -18.929688 C 27.214844 -18.929688 27.503906 -19.21875 27.503906 -19.449219 L 27.503906 -26.753906 C 27.503906 -27.042969 27.214844 -27.273438 26.871094 -27.273438 L 8.804688 -27.273438 L 8.804688 -37.6875 L 21.863281 -37.6875 L 21.863281 -46.03125 L 0.632812 -46.03125 C 0.289062 -46.03125 0 -45.742188 0 -45.511719 L 0 -0.519531 C 0 -0.289062 0.289062 0 0.632812 0 L 21.863281 0 Z M 21.863281 -8.574219 "/></g></g></g><g fill="#e46e6e" fill-opacity="1"><g transform="translate(284.571402, 262.010889)"><g><path d="M 38.089844 -46.03125 L 30.667969 -46.03125 C 30.265625 -46.03125 29.976562 -45.742188 29.976562 -45.511719 L 29.976562 -15.535156 L 8.746094 -45.855469 C 8.6875 -45.972656 8.34375 -46.03125 8.226562 -46.03125 L 0.574219 -46.03125 C 0.289062 -46.03125 0 -45.742188 0 -45.511719 L 0 -11.046875 L 8.804688 -11.046875 L 8.804688 -30.496094 L 29.976562 -0.171875 C 30.035156 -0.0585938 30.378906 0 30.496094 0 L 38.089844 0 C 38.492188 0 38.722656 -0.289062 38.722656 -0.519531 L 38.722656 -45.511719 C 38.722656 -45.742188 38.492188 -46.03125 38.089844 -46.03125 Z M 38.089844 -46.03125 "/></g></g></g><g fill="#e89797" fill-opacity="1"><g transform="translate(208.025365, 159.122643)"><g><path d="M -0.0625 -1.484375 L -1.484375 -1.421875 L -1.75 -7.5625 L -2.71875 -8.4375 L -5.203125 -8.328125 L -6.09375 -7.375 L -5.890625 -2.5625 L -7.578125 -0.71875 L -10.71875 -0.59375 L -12.578125 -2.28125 L -12.859375 -8.890625 L -11.4375 -8.953125 L -11.1875 -3.03125 L -10.21875 -2.140625 L -8.171875 -2.25 L -7.28125 -3.1875 L -7.484375 -8.015625 L -5.78125 -9.828125 L -2.21875 -9.984375 L -0.359375 -8.328125 Z M -0.0625 -1.484375 "/></g></g></g><g fill="#e89797" fill-opacity="1"><g transform="translate(207.563741, 147.453109)"><g><path d="M 0.8125 -2.8125 L -1.375 -1.609375 L -9.9375 -4.078125 L -11.15625 -6.28125 L -9.515625 -11.9375 L -7.3125 -13.140625 L 1.25 -10.671875 L 2.453125 -8.46875 Z M -0.3125 -3.859375 L 0.9375 -8.171875 L 0.3125 -9.328125 L -7.25 -11.515625 L -8.390625 -10.890625 L -9.640625 -6.578125 L -9.015625 -5.40625 L -1.453125 -3.21875 Z M -0.3125 -3.859375 "/></g></g></g><g fill="#e89797" fill-opacity="1"><g transform="translate(211.231371, 135.670358)"><g><path d="M 0.8125 -1.21875 L -9.546875 -8.15625 L -5.0625 -14.84375 L -3.875 -14.0625 L -7.5 -8.65625 L -4.15625 -6.40625 L -0.96875 -11.140625 L 0.1875 -10.359375 L -3 -5.625 L 1.671875 -2.5 Z M 0.8125 -1.21875 "/></g></g></g><g fill="#e89797" fill-opacity="1"><g transform="translate(217.193936, 127.018996)"><g><path d="M 3 -2.53125 L -4.109375 -10.984375 L -6.9375 -8.59375 L -7.859375 -9.6875 L -1.015625 -15.453125 L -0.09375 -14.359375 L -2.921875 -11.96875 L 4.1875 -3.515625 Z M 3 -2.53125 "/></g></g></g><g fill="#e89797" fill-opacity="1"><g transform="translate(224.502711, 120.29868)"><g><path d="M 3.078125 -1.125 L -4.09375 -11.78125 L -2.5625 -12.34375 L 3.53125 -2.859375 L 3.890625 -2.984375 L 2.265625 -14.109375 L 3.578125 -14.59375 L 9.5625 -5.078125 L 9.90625 -5.1875 L 8.40625 -16.375 L 9.9375 -16.921875 L 11.359375 -4.171875 L 9.078125 -3.328125 L 4.046875 -11.296875 L 5.359375 -1.96875 Z M 3.078125 -1.125 "/></g></g></g><g fill="#e89797" fill-opacity="1"><g transform="translate(239.338592, 115.313079)"><g><path d="M 0.234375 0 L 4.671875 -12.390625 L 7.0625 -12.34375 L 11.046875 0.1875 L 9.4375 0.171875 L 8.4375 -3.109375 L 2.96875 -3.203125 L 1.859375 0.03125 Z M 3.453125 -4.546875 L 8.015625 -4.46875 L 6.03125 -10.90625 L 5.640625 -10.921875 Z M 3.453125 -4.546875 "/></g></g></g><g fill="#e89797" fill-opacity="1"><g transform="translate(251.170932, 115.593761)"><g><path d="M 1.390625 0.484375 L 5.5625 -11.265625 L 11.984375 -8.96875 L 13.046875 -6.71875 L 11.71875 -2.96875 L 9.46875 -1.875 L 9.421875 -1.90625 L 9.875 3.5 L 8.28125 2.9375 L 7.84375 -2.46875 L 4.5 -3.640625 L 2.84375 1.015625 Z M 4.953125 -4.9375 L 9.265625 -3.421875 L 10.453125 -3.984375 L 11.4375 -6.75 L 10.859375 -7.921875 L 6.546875 -9.4375 Z M 4.953125 -4.9375 "/></g></g></g><g fill="#e89797" fill-opacity="1"><g transform="translate(262.456085, 119.766254)"><g><path d="M 1.171875 0.890625 L 8.78125 -8.984375 L 15.296875 -3.953125 L 14.421875 -2.828125 L 9.125 -6.90625 L 6.828125 -3.921875 L 11.5625 -0.28125 L 10.703125 0.84375 L 5.96875 -2.796875 L 3.25 0.71875 L 8.546875 4.796875 L 7.6875 5.921875 Z M 1.171875 0.890625 "/></g></g></g><g fill="#e89797" fill-opacity="1"><g transform="translate(271.332117, 127.218649)"><g/></g></g><g fill="#e89797" fill-opacity="1"><g transform="translate(274.622217, 130.782538)"><g><path d="M 0.65625 1.3125 L 11.78125 -4.296875 L 15.5 3.046875 L 14.234375 3.6875 L 11.21875 -2.28125 L 7.84375 -0.578125 L 10.53125 4.75 L 9.28125 5.375 L 6.59375 0.046875 L 2.625 2.046875 L 5.640625 8.015625 L 4.375 8.65625 Z M 0.65625 1.3125 "/></g></g></g><g fill="#e89797" fill-opacity="1"><g transform="translate(279.675881, 140.713862)"><g><path d="M 0.21875 1.453125 L 12.5625 -0.34375 L 12.859375 1.75 L 3.71875 8.703125 L 13.65625 7.25 L 13.875 8.765625 L 1.53125 10.5625 L 1.265625 8.75 L 10.21875 1.9375 L 10.171875 1.5625 L 0.4375 2.984375 Z M 0.21875 1.453125 "/></g></g></g><g fill="#e89797" fill-opacity="1"><g transform="translate(281.404024, 153.210217)"><g><path d="M -0.5625 2.828125 L 1.53125 1.484375 L 10.265625 3.21875 L 11.671875 5.28125 L 10.515625 11.09375 L 8.484375 12.46875 L 7.6875 11.3125 L 9.265625 10.234375 L 10.171875 5.71875 L 9.46875 4.625 L 1.734375 3.09375 L 0.640625 3.828125 L -0.09375 7.484375 L 1.296875 9.75 L 3.28125 10.140625 L 3.84375 7.296875 L 5.171875 7.5625 L 4.359375 11.65625 L -2.0625 10.375 L -1.8125 9.125 L -0.40625 9.40625 L -1.515625 7.609375 Z M -0.5625 2.828125 "/></g></g></g><g fill="#e89797" fill-opacity="1"><g transform="translate(278.454851, 165.633971)"><g><path d="M -0.46875 0.9375 L 0.796875 1.578125 L 0.09375 2.9375 L 8.671875 7.3125 L 9.375 5.953125 L 10.640625 6.609375 L 8.546875 10.703125 L 7.28125 10.046875 L 7.984375 8.671875 L -0.59375 4.296875 L -1.296875 5.671875 L -2.5625 5.03125 Z M -0.46875 0.9375 "/></g></g></g><g fill="#e89797" fill-opacity="1"><g transform="translate(275.285903, 172.441986)"><g><path d="M -1 1.078125 L 8.140625 9.5625 L 6.703125 11.109375 L -4.4375 8.359375 L 2.921875 15.1875 L 1.875 16.296875 L -7.265625 7.8125 L -6.015625 6.484375 L 4.90625 9.1875 L 5.171875 8.90625 L -2.046875 2.203125 Z M -1 1.078125 "/></g></g></g><g fill="#e89797" fill-opacity="1"><g transform="translate(266.504988, 181.584737)"><g><path d="M -1.296875 0.703125 L 4.671875 11.65625 L -2.546875 15.59375 L -3.234375 14.34375 L 2.640625 11.140625 L 0.84375 7.8125 L -4.40625 10.671875 L -5.09375 9.4375 L 0.15625 6.578125 L -1.953125 2.6875 L -7.828125 5.890625 L -8.515625 4.640625 Z M -1.296875 0.703125 "/></g></g></g><g fill="#e89797" fill-opacity="1"><g transform="translate(256.615224, 186.867055)"><g><path d="M -1.4375 0.28125 L 0.96875 12.515625 L -7.109375 14.109375 L -7.375 12.71875 L -0.8125 11.421875 L -1.546875 7.703125 L -7.40625 8.859375 L -7.6875 7.484375 L -1.828125 6.328125 L -2.671875 1.96875 L -9.234375 3.265625 L -9.515625 1.875 Z M -1.4375 0.28125 "/></g></g></g><g fill="#e89797" fill-opacity="1"><g transform="translate(245.645854, 189.0038)"><g><path d="M -1.453125 -0.171875 L -2.953125 12.203125 L -9.734375 11.375 L -11.25 9.40625 L -10.78125 5.46875 L -8.828125 3.90625 L -8.765625 3.921875 L -10.40625 -1.265625 L -8.71875 -1.046875 L -7.109375 4.125 L -3.59375 4.546875 L -3 -0.359375 Z M -3.75 5.90625 L -8.28125 5.359375 L -9.328125 6.1875 L -9.671875 9.078125 L -8.859375 10.109375 L -4.328125 10.65625 Z M -3.75 5.90625 "/></g></g></g></svg>